# xmcd
#
# Track frame offsets: 
#        150
#        18741
#        31897
#        46721
#        58514
#        77183
#        95763
#        111245
#        125928
#        141659
#        158968
#        176802
#        191937
#        207862
#        225683
#        241325
#        261336
#        276418
#        293823
#        309162
#
# Disc length: 4367 seconds
#
# Revision: 0
# Processed by: cddbd v1.5.2PL0 Copyright (c) Steve Scherf et al.
# Submitted via: ExactAudioCopy v0.99pb5
#
DISCID=35110d14
DTITLE=Chris Knight - Home Demos and Rough Cuts
DYEAR=2000
DGENRE=
TTITLE0=Highway Junkie
TTITLE1=Hard Edges
TTITLE2=Summer of '75
TTITLE3=If I Were You
TTITLE4=The Rivers Own
TTITLE5=William
TTITLE6=Bring The Harvest Home
TTITLE7=It Ain't Easy Being Me
TTITLE8=Something's Changed
TTITLE9=Blame Me
TTITLE10=Rita's Only Fault
TTITLE11=It Ain't Easy Being Me 2
TTITLE12=The Band Is Playing Too Slow
TTITLE13=Bring The Havest Home 2
TTITLE14=House and 90 Acres
TTITLE15=Leaving Souvenirs
TTITLE16=Love and a .45
TTITLE17=Something's Changed 2
TTITLE18=Summer of '75 2
TTITLE19=The Hammer Going Down
EXTD=
EXTT0=
EXTT1=
EXTT2=
EXTT3=
EXTT4=
EXTT5=
EXTT6=
EXTT7=
EXTT8=
EXTT9=
EXTT10=
EXTT11=
EXTT12=
EXTT13=
EXTT14=
EXTT15=
EXTT16=
EXTT17=
EXTT18=
EXTT19=
PLAYORDER=
